<?xml version="1.0" encoding="UTF-8" standalone="no"?>
<!-- Created with Inkscape (http://www.inkscape.org/) -->

<svg
   width="512"
   height="512"
   viewBox="0 0 135.46666 135.46667"
   version="1.1"
   id="svg1"
   sodipodi:docname="logo-icon.svg"
   inkscape:version="1.4.2 (f4327f4, 2025-05-13)"
   xmlns:inkscape="http://www.inkscape.org/namespaces/inkscape"
   xmlns:sodipodi="http://sodipodi.sourceforge.net/DTD/sodipodi-0.dtd"
   xmlns="http://www.w3.org/2000/svg"
   xmlns:svg="http://www.w3.org/2000/svg">
  <sodipodi:namedview
     id="namedview1"
     pagecolor="#ffffff"
     bordercolor="#000000"
     borderopacity="0.25"
     inkscape:showpageshadow="2"
     inkscape:pageopacity="0.0"
     inkscape:pagecheckerboard="0"
     inkscape:deskcolor="#d1d1d1"
     inkscape:document-units="px"
     inkscape:zoom="1.0167041"
     inkscape:cx="235.5651"
     inkscape:cy="298.5136"
     inkscape:window-width="1920"
     inkscape:window-height="1009"
     inkscape:window-x="-8"
     inkscape:window-y="-8"
     inkscape:window-maximized="1"
     inkscape:current-layer="layer1" />
  <defs
     id="defs1">
    <style
       id="style1">
      .cls-1 {
        fill: #ddb614;
      }

      .cls-2 {
        fill: #fff;
      }
    </style>
  </defs>
  <g
     inkscape:label="Layer 1"
     inkscape:groupmode="layer"
     id="layer1">
    <rect
       style="fill:#d4aa00;stroke-width:0.264583"
       id="rect1"
       width="135.46666"
       height="135.46666"
       x="0"
       y="0"
       ry="22.380322" />
    <path
       class="cls-2"
       d="m 104.36852,91.043623 c -0.7525,1.224747 -1.12219,2.376747 -0.39115,3.558563 0.49848,0.804972 1.62425,1.019631 2.45903,0.853867 0.90276,-0.178885 1.33566,-0.812125 1.83534,-1.661223 4.12502,-6.997878 6.69616,-14.686238 6.91201,-22.905288 0.27667,-10.533783 -3.20915,-20.662103 -9.56663,-28.97894 -0.83956,-1.098337 -2.40776,-1.5205 -3.42858,-0.55692 l -4.190615,3.955685 c -1.204474,1.136499 -2.219331,2.505545 -3.642043,3.496553 -6.151168,-7.837432 -14.57891,-13.180051 -24.332771,-14.886589 -1.080447,-0.188423 -2.385096,0.992201 -2.511506,1.787631 -0.264746,1.657643 0.869368,2.72736 2.270615,2.921745 1.793592,0.24805 3.278314,0.825244 4.993201,1.434637 7.155292,2.546092 13.053639,7.435543 17.294342,13.672574 0.802587,1.180623 2.555636,1.570587 3.554989,0.587927 l 7.755148,-7.631121 2.70709,4.677177 c 7.10401,12.276099 5.75524,27.509722 -1.71727,39.673722 z"
       id="path1"
       style="stroke-width:0.119255" />
    <path
       class="cls-2"
       d="m 93.522289,92.038207 c -0.784698,1.073294 -0.12641,2.565174 0.696451,3.050539 1.304647,0.770388 2.504353,0.368497 3.34033,-0.73103 5.41536,-7.129062 8.50645,-15.662941 8.44325,-24.695306 -0.031,-4.37904 -0.92542,-8.469484 -2.25989,-12.542038 -0.32318,-0.987431 -1.17704,-1.536002 -1.93669,-1.624252 -0.96836,-0.110907 -1.66481,0.342262 -2.311167,1.049444 l -6.72955,7.361605 C 88.414604,51.304311 77.153361,42.744194 63.811125,42.65833 c -1.493071,-0.0095 -2.616452,0.672598 -2.734515,2.10485 -0.100174,1.208052 0.760847,2.544899 2.226489,2.537744 10.896319,-0.05128 20.542848,6.57333 24.488992,16.725499 3.699289,9.516541 1.728002,20.298376 -4.875142,28.07022 -4.049896,4.767811 -9.118227,8.093827 -15.079778,9.944667 -1.347581,0.41858 -2.021371,1.69342 -1.710116,2.86927 0.301715,1.14366 1.612327,2.02018 2.938441,1.62067 15.96942,-4.80954 27.266437,-20.045552 24.973169,-37.095425 l 6.293085,-7.026499 c 2.63791,11.221886 -0.21586,20.609631 -6.810655,29.627686 z"
       id="path2"
       style="stroke-width:0.119255" />
    <path
       class="cls-1"
       d="m 59.231737,121.18291 c 3.058888,-2.76433 3.501324,-6.64488 3.238963,-10.53259 l -0.579579,-8.5959 c -0.17292,-2.558013 -0.310062,-5.005123 -0.574808,-7.526171 -0.159802,-1.526464 -0.213467,-3.013571 -0.124025,-4.628283 3.820927,-1.250985 7.291244,-3.227036 9.740742,-6.450497 2.773865,-3.651584 4.287211,-7.991271 4.018885,-12.539653 -0.05366,-0.913494 -0.696444,-2.103657 -1.636174,-2.144204 -2.730938,-0.119254 -5.373626,-0.104943 -8.077135,-0.01312 -1.382164,0.04651 -2.076227,1.316574 -1.991556,2.436378 0.239702,3.165025 4.516182,2.098884 6.988335,2.106041 C 69.194291,82.71605 60.612709,87.21196 51.862977,85.851264 42.059031,84.328378 36.406349,75.374719 38.115272,65.864141 c 1.174661,-6.542323 5.391514,-11.966036 11.300594,-14.897322 1.344003,-0.666634 1.710115,-2.008252 1.000549,-3.304553 -0.586735,-1.072102 -1.966514,-1.395283 -3.185298,-0.714337 -3.056504,1.708923 -5.847068,3.699287 -8.120067,6.380137 -5.566819,6.56737 -7.437928,15.47094 -4.509028,23.620817 3.323634,9.245835 12.358386,14.146019 21.972716,13.905123 l 0.149069,4.47683 0.400696,6.487464 0.747728,10.71625 c 0.153839,2.20502 -0.506833,4.29914 -2.252725,5.61213 -2.020178,1.51931 -4.597276,1.94863 -6.869082,0.85506 -1.537196,-0.73938 -2.66654,-2.09054 -2.951559,-3.42738 -0.398312,-1.86396 -0.06559,-3.56096 1.183008,-4.87038 2.470962,-2.58902 5.607366,-1.2641 5.353353,-4.22877 -0.09421,-1.09715 -1.019629,-2.31832 -2.439955,-2.19072 -2.456651,0.22182 -4.983662,1.57536 -6.566175,3.46674 -4.047511,4.83937 -2.821571,11.07282 2.013023,14.67432 0.680945,0.50683 1.149617,0.81928 2.00706,1.1198 4.114294,1.44179 8.508837,0.68572 11.881365,-2.36124 z"
       id="path3"
       style="stroke-width:0.119255;fill:#1a1a1a" />
    <path
       class="cls-1"
       d="m 76.39371,85.221598 c -2.969448,3.913943 -6.803491,6.535165 -11.238582,8.17373 -1.256947,0.463902 -1.20209,2.182363 -0.791853,2.944403 0.624896,1.156773 1.89019,1.544353 3.154293,1.060177 C 77.147398,93.71493 84.181054,85.474415 84.727241,74.847612 84.851267,72.433895 84.528087,70.244375 83.937774,67.874781 80.973098,55.97314 68.966516,49.70391 57.458417,53.100289 c -2.733323,0.807356 -5.101725,2.268229 -7.285282,4.157225 -3.77084,3.261625 -6.055764,8.103372 -6.44692,13.046488 -0.09421,1.187779 0.125217,2.227679 1.011281,2.74167 0.812126,0.471055 1.730389,0.419776 2.537744,0.01194 0.950462,-0.480597 1.027978,-1.3607 1.117419,-2.420873 0.347032,-4.111913 2.122737,-7.732491 5.35693,-10.325092 6.823765,-5.470222 16.929425,-4.480404 22.522478,2.351705 5.020633,6.132089 5.063564,16.043363 0.119254,22.560644 z"
       id="path4"
       style="stroke-width:0.119255;fill:#1a1a1a" />
    <path
       class="cls-1"
       d="m 55.997544,83.488822 c 1.722041,0.07752 3.093472,-0.366112 4.451786,-0.980273 0.116869,-1.311805 -0.0095,-2.425647 -0.09421,-3.673052 L 59.083861,60.250812 c -1.527655,0.617744 -3.529945,1.417942 -4.152456,2.85258 -0.646362,1.488301 -0.02743,3.508478 0.06082,5.081449 l 0.307678,5.492881 z"
       id="path5"
       style="stroke-width:0.119255;fill:#1a1a1a" />
    <path
       class="cls-1"
       d="M 52.913612,40.027567 C 39.374604,43.951053 29.30949,52.62804 28.174183,67.19741 c -0.652324,8.366925 2.901472,16.415439 9.285187,21.847499 4.139337,3.522789 8.976316,5.54774 14.3726,6.153553 1.335655,0.150259 1.98798,1.55747 1.741122,2.653422 -0.254013,1.129342 -1.234288,2.055952 -2.707087,1.88065 C 38.024638,98.20607 27.066305,88.589355 24.265007,75.87201 22.083835,65.972663 24.623964,55.857461 31.027952,48.103509 35.231688,43.012517 40.778234,39.60779 46.874544,37.242965 48.895915,36.45946 50.674005,35.616328 52.8516,35.028402 l -1.497842,-21.57679 c -0.07155,-1.027977 0.0799,-1.737544 0.733418,-2.361247 0.587927,-0.562883 1.645718,-0.827629 2.586639,-0.429317 2.714241,1.150809 5.309228,2.612875 7.515444,4.580581 4.130989,3.683783 5.873304,9.217211 4.096405,14.476352 -1.41794,4.197772 -4.893028,6.412336 -8.635247,8.312067 l 0.24805,2.80249 0.257591,4.518568 c 0.09063,1.589668 0.375653,3.082739 0.124025,4.732034 l -4.376655,1.49665 c -0.159802,-3.032653 -0.460324,-5.522695 -0.615355,-8.600664 -0.05009,-0.97789 0.138336,-1.899731 -0.373268,-2.952751 z m 8.784316,-11.359029 c 1.541966,-3.444082 0.239703,-7.214922 -2.340973,-9.586902 -0.934959,-0.859827 -1.64214,-1.767357 -3.014764,-2.104848 l 1.04825,15.854938 c 1.917619,-1.025592 3.479858,-2.312352 4.307487,-4.161996 z"
       id="path6"
       style="stroke-width:0.119255;fill:#1a1a1a" />
    <path
       class="cls-1"
       d="m 59.231737,121.18291 c -3.372529,3.04816 -7.767072,3.80304 -11.881366,2.36125 -0.857442,-0.30052 -1.326114,-0.61297 -2.00706,-1.11981 -4.835786,-3.60149 -6.060534,-9.83494 -2.013022,-14.67431 1.58132,-1.89138 4.109523,-3.24493 6.566174,-3.46674 1.420326,-0.12879 2.345744,1.09237 2.439956,2.19071 0.254012,2.96468 -2.883584,1.63976 -5.353353,4.22878 -1.248599,1.30823 -1.58132,3.00642 -1.183008,4.87037 0.286211,1.33685 1.414363,2.68801 2.951558,3.42739 2.271806,1.09356 4.848904,0.66424 6.869083,-0.85506 1.747084,-1.313 2.406563,-3.40711 2.252725,-5.61214 L 57.125695,101.81711 56.724999,95.329642 56.57593,90.852812 C 46.9616,91.093708 37.925656,86.193523 34.603215,76.947693 31.674314,68.799006 33.545424,59.894241 39.112242,53.326874 c 2.272999,-2.682043 5.063564,-4.672407 8.120067,-6.380138 1.218785,-0.680945 2.598564,-0.357764 3.185298,0.714337 0.709567,1.296301 0.343454,2.636726 -1.000548,3.304554 -5.909081,2.931285 -10.125934,8.354996 -11.300595,14.897324 -1.708923,9.510578 3.944952,18.464233 13.747705,19.987118 8.749732,1.359506 17.331317,-3.135208 18.372411,-12.556348 -2.470962,-0.0072 -6.748636,1.058983 -6.988338,-2.106041 -0.08467,-1.119805 0.609392,-2.389868 1.991557,-2.436379 2.703508,-0.09063 5.346198,-0.104943 8.077136,0.01312 0.938536,0.04057 1.581316,1.230711 1.636174,2.144204 0.268322,4.548378 -1.245019,8.888065 -4.018889,12.539649 -2.449495,3.223461 -5.919813,5.199517 -9.74074,6.450501 -0.08944,1.614708 -0.03577,3.100625 0.124025,4.628279 0.263554,2.522242 0.401889,4.968163 0.574809,7.526176 l 0.579579,8.59589 c 0.26236,3.88771 -0.180075,7.76826 -3.238963,10.53259 z"
       id="path7"
       style="stroke-width:0.119255;fill:#1a1a1a" />
    <path
       class="cls-1"
       d="m 76.39371,85.221598 c 4.944306,-6.517281 4.901374,-16.428555 -0.119258,-22.560644 -5.593054,-6.83092 -15.699905,-7.821928 -22.522478,-2.351706 -3.234193,2.592601 -5.009898,6.21318 -5.35693,10.325088 -0.08944,1.060178 -0.166957,1.940277 -1.117418,2.420878 -0.807356,0.407849 -1.725619,0.459129 -2.537744,-0.01194 -0.886064,-0.513992 -1.105494,-1.553891 -1.011282,-2.74167 0.389964,-4.943116 2.67608,-9.786058 6.44692,-13.046488 2.183557,-1.888998 4.550767,-3.34987 7.285282,-4.157225 11.508099,-3.39638 23.51468,2.872851 26.479356,14.774487 0.590313,2.369599 0.914684,4.559115 0.789467,6.972835 -0.547381,10.626804 -7.579843,18.867318 -17.209673,22.552297 -1.264101,0.484171 -2.529396,0.09659 -3.154292,-1.060178 -0.411429,-0.760845 -0.465094,-2.47931 0.791853,-2.944402 4.43509,-1.63737 8.269134,-4.258592 11.238581,-8.173731 z"
       id="path8"
       style="stroke-width:0.119255;fill:#1a1a1a" />
    <path
       class="cls-1"
       d="m 55.997544,83.488822 -0.697641,-9.8111 -0.307678,-5.492881 c -0.08825,-1.572971 -0.707182,-3.593148 -0.06082,-5.081449 0.622511,-1.434638 2.624801,-2.236031 4.152456,-2.85258 l 1.271257,18.584685 c 0.08586,1.247405 0.212274,2.361247 0.09421,3.673052 -1.358314,0.614161 -2.729745,1.057789 -4.451786,0.980273 z"
       id="path9"
       style="stroke-width:0.119255;fill:#1a1a1a" />
  </g>
</svg>
